<svg width="27" height="33" viewBox="0 0 27 33" fill="none" xmlns="http://www.w3.org/2000/svg">
<path d="M3.46367 32.5323C2.69597 32.5353 2.21798 31.6979 2.60436 31.0269L12.685 13.521C13.0705 12.8516 14.0276 12.8499 14.4089 13.5179L24.3574 30.9466C24.7387 31.6146 24.2586 32.4521 23.4927 32.4551L3.46367 32.5323Z" fill="black"/>
<path d="M13.324 25.7475L0.596069 12.8738L13.324 1.14441e-05L26.0519 12.8738L13.324 25.7475Z" fill="black"/>
<path d="M8.5 9.50001C9.60457 9.50001 10.5 10.3954 10.5 11.5C10.5 12.6046 9.60457 13.5 8.5 13.5C7.39543 13.5 6.5 12.6046 6.5 11.5C6.5 10.3954 7.39543 9.50001 8.5 9.50001Z" stroke="white"/>
<path d="M15.0001 11.5H20.0001M17.4814 9.00001L17.4814 14" stroke="white"/>
</svg>
